<?xml version="1.0" standalone="no"?>
<!DOCTYPE svg PUBLIC "-//W3C//DTD SVG 20010904//EN"
 "http://www.w3.org/TR/2001/REC-SVG-20010904/DTD/svg10.dtd">
<svg version="1.0" xmlns="http://www.w3.org/2000/svg"
 width="88.000000pt" height="23.000000pt" viewBox="0 0 88.000000 23.000000"
 preserveAspectRatio="xMidYMid meet">

<g transform="translate(0.000000,23.000000) scale(0.100000,-0.100000)"
fill="#000000" stroke="none">
<path d="M520 115 l0 -115 25 0 c23 0 25 4 25 41 0 47 14 79 35 79 12 0 15
-14 15 -60 l0 -60 30 0 c29 0 30 1 30 49 0 91 -26 124 -81 104 l-29 -11 0 44
c0 40 -2 44 -25 44 l-25 0 0 -115z"/>
<path d="M710 205 c0 -21 5 -25 30 -25 25 0 30 4 30 25 0 21 -5 25 -30 25 -25
0 -30 -4 -30 -25z"/>
<path d="M10 110 l0 -110 25 0 c23 0 25 4 25 45 l0 45 45 0 c38 0 45 3 45 20
0 17 -7 20 -45 20 -41 0 -45 2 -45 25 0 23 3 25 50 25 43 0 50 3 50 20 0 18
-7 20 -75 20 l-75 0 0 -110z"/>
<path d="M193 134 c-28 -29 -30 -73 -3 -107 17 -22 27 -25 85 -25 l65 -1 0 79
0 79 -62 -1 c-51 -1 -66 -5 -85 -24z m85 -52 c2 -22 -2 -34 -12 -38 -34 -13
-61 37 -34 64 21 21 43 9 46 -26z"/>
<path d="M393 150 c-15 -6 -23 -18 -23 -33 0 -28 14 -42 53 -51 43 -10 33 -30
-12 -22 -30 4 -40 2 -45 -9 -12 -32 74 -46 112 -19 40 28 26 64 -30 78 -42 10
-35 30 7 22 30 -6 35 -4 35 12 0 29 -51 40 -97 22z"/>
<path d="M710 80 c0 -79 0 -80 25 -80 25 0 25 1 25 80 0 79 0 80 -25 80 -25 0
-25 -1 -25 -80z"/>
</g>
</svg>
